<svg xmlns="http://www.w3.org/2000/svg" width="1000" height="670" font-family="'Segoe UI', Helvetica, Arial, sans-serif"><rect width="100%" height="100%" fill="white" /><text x="500" y="24" font-size="16" font-weight="700" text-anchor="middle" fill="#0f172a">RetroBoard.Api under 100 boards x 5 participants load</text><text x="60" y="38" font-size="13" font-weight="600" fill="#1b7a3d">CPU -- avg 7.9%, peak 27.4%</text><line x1="60" y1="310.0" x2="980" y2="310.0" stroke="#e2e8f0" stroke-width="1" /><text x="52" y="314.0" font-size="11" text-anchor="end" fill="#475569">0%</text><line x1="60" y1="245.0" x2="980" y2="245.0" stroke="#e2e8f0" stroke-width="1" /><text x="52" y="249.0" font-size="11" text-anchor="end" fill="#475569">25%</text><line x1="60" y1="180.0" x2="980" y2="180.0" stroke="#e2e8f0" stroke-width="1" /><text x="52" y="184.0" font-size="11" text-anchor="end" fill="#475569">50%</text><line x1="60" y1="115.0" x2="980" y2="115.0" stroke="#e2e8f0" stroke-width="1" /><text x="52" y="119.0" font-size="11" text-anchor="end" fill="#475569">75%</text><line x1="60" y1="50.0" x2="980" y2="50.0" stroke="#e2e8f0" stroke-width="1" /><text x="52" y="54.0" font-size="11" text-anchor="end" fill="#475569">100%</text><polyline points="109.9,310.0 240.8,309.1 298.9,286.7 376.7,306.8 442.9,310.0 516.7,296.7 571.4,305.5 632.6,283.8 697.0,290.9 753.9,281.9 808.2,287.3 866.4,255.1 919.5,291.5 980.0,238.8 " fill="none" stroke="#1b7a3d" stroke-width="2" /><text x="60" y="358" font-size="13" font-weight="600" fill="#1d4ed8">Memory -- avg 166 MB, peak 173 MB</text><line x1="60" y1="630.0" x2="980" y2="630.0" stroke="#e2e8f0" stroke-width="1" /><text x="52" y="634.0" font-size="11" text-anchor="end" fill="#475569">0MB</text><line x1="60" y1="565.0" x2="980" y2="565.0" stroke="#e2e8f0" stroke-width="1" /><text x="52" y="569.0" font-size="11" text-anchor="end" fill="#475569">50MB</text><line x1="60" y1="500.0" x2="980" y2="500.0" stroke="#e2e8f0" stroke-width="1" /><text x="52" y="504.0" font-size="11" text-anchor="end" fill="#475569">100MB</text><line x1="60" y1="435.0" x2="980" y2="435.0" stroke="#e2e8f0" stroke-width="1" /><text x="52" y="439.0" font-size="11" text-anchor="end" fill="#475569">149MB</text><line x1="60" y1="370.0" x2="980" y2="370.0" stroke="#e2e8f0" stroke-width="1" /><text x="52" y="374.0" font-size="11" text-anchor="end" fill="#475569">199MB</text><polyline points="109.9,418.5 240.8,418.1 298.9,416.8 376.7,416.6 442.9,416.6 516.7,416.3 571.4,416.2 632.6,410.9 697.0,410.8 753.9,410.6 808.2,410.4 866.4,410.0 919.5,404.6 980.0,403.9 " fill="none" stroke="#1d4ed8" stroke-width="2" /><text x="500" y="660" font-size="11" text-anchor="middle" fill="#64748b">Elapsed time: 0 - 2s</text></svg>